# xmcd CD database file
#
# Track frame offsets:
#	150
#	19555
#	40567
#	53877
#	73597
#	102705
#	122355
#	138635
#	160377
#	179917
#
# Disc length: 2655 seconds
#
# Revision: 1
# Processed by: cddbd v1.5.2PL0 Copyright (c) Steve Scherf et al.
# Submitted via: CDex 1.51
#
DISCID=8c0a5d0a
DTITLE=松山千春 - 歩き続ける時
DYEAR=1978
DGENRE=Folk
TTITLE0=帰りたい
TTITLE1=雪化粧
TTITLE2=あの日のままで
TTITLE3=ピエロ
TTITLE4=歩き続ける時
TTITLE5=寒い夜
TTITLE6=踊りましょうか
TTITLE7=良生（よしたか）ちゃんとポプラ並木
TTITLE8=貴方のことで
TTITLE9=これ以上
EXTD=YEAR: 1978
EXTT0=
EXTT1=
EXTT2=
EXTT3=
EXTT4=
EXTT5=
EXTT6=
EXTT7=
EXTT8=
EXTT9=
PLAYORDER=
